<mxfile host="app.diagrams.net" modified="2023-10-20T06:26:19.392Z" agent="Mozilla/5.0 (Windows NT 10.0; Win64; x64) AppleWebKit/537.36 (KHTML, like Gecko) Chrome/117.0.0.0 Safari/537.36" version="21.7.5" etag="VDq7dqm0fT6HP_GspSC3" type="github">
  <diagram name="第 1 页" id="DKer_y8mN4b5VxuhC62l">
    <mxGraphModel>
      <root>
        <mxCell id="0" />
        <mxCell id="1" parent="0" />
      </root>
    </mxGraphModel>
  </diagram>
</mxfile>
